HIERARCHY
ROOT Pelvis
{
	OFFSET 0.000000 0.000000 0.000000
	CHANNELS 6 Xposition Yposition Zposition Zrotation Yrotation Xrotation 
	JOINT Left_hip
	{
		OFFSET 0.069463 -0.088608 -0.009542
		CHANNELS 3 Zrotation Yrotation Xrotation
		JOINT Left_knee
		{
			OFFSET 0.030639 -0.359740 -0.005288
			CHANNELS 3 Zrotation Yrotation Xrotation
			JOINT Left_ankle
			{
				OFFSET -0.011068 -0.376034 -0.042462
				CHANNELS 3 Zrotation Yrotation Xrotation
				JOINT Left_foot
				{
					OFFSET 0.023192 -0.053321 0.111332
					CHANNELS 3 Zrotation Yrotation Xrotation
					End Site
					{
						OFFSET 0.000000 0.000000 0.000000
					}
				}
			}
		}
	}
	JOINT Right_hip
	{
		OFFSET -0.067438 -0.088025 -0.006263
		CHANNELS 3 Zrotation Yrotation Xrotation
		JOINT Right_knee
		{
			OFFSET -0.035962 -0.366229 -0.008063
			CHANNELS 3 Zrotation Yrotation Xrotation
			JOINT Right_ankle
			{
				OFFSET 0.013608 -0.375719 -0.040481
				CHANNELS 3 Zrotation Yrotation Xrotation
				JOINT Right_foot
				{
					OFFSET -0.021034 -0.045527 0.114617
					CHANNELS 3 Zrotation Yrotation Xrotation
					End Site
					{
						OFFSET 0.000000 0.000000 0.000000
					}
				}
			}
		}
	}
	JOINT Spine1
	{
		OFFSET -0.002610 0.101823 -0.019986
		CHANNELS 3 Zrotation Yrotation Xrotation
		JOINT Spine2
		{
			OFFSET 0.004114 0.128714 -0.000938
			CHANNELS 3 Zrotation Yrotation Xrotation
			JOINT Spine3
			{
				OFFSET 0.002191 0.048470 0.027684
				CHANNELS 3 Zrotation Yrotation Xrotation
				JOINT Neck
				{
					OFFSET -0.002856 0.198873 -0.044022
					CHANNELS 3 Zrotation Yrotation Xrotation
					JOINT Head
					{
						OFFSET 0.002981 0.062960 0.049860
						CHANNELS 3 Zrotation Yrotation Xrotation
						End Site
						{
							OFFSET 0.000000 0.000000 0.000000
						}
					}
				}
				JOINT Left_collar
				{
					OFFSET 0.073708 0.112550 -0.033440
					CHANNELS 3 Zrotation Yrotation Xrotation
					JOINT Left_shoulder
					{
						OFFSET 0.083291 0.030786 -0.008013
						CHANNELS 3 Zrotation Yrotation Xrotation
						JOINT Left_elbow
						{
							OFFSET 0.245601 -0.011792 -0.027873
							CHANNELS 3 Zrotation Yrotation Xrotation
							JOINT Left_wrist
							{
								OFFSET 0.232258 0.008622 -0.000487
								CHANNELS 3 Zrotation Yrotation Xrotation
								JOINT Left_palm
								{
									OFFSET 0.077300 -0.009457 -0.012851
									CHANNELS 3 Zrotation Yrotation Xrotation
									End Site
									{
										OFFSET 0.000000 0.000000 0.000000
									}
								}
							}
						}
					}
				}
				JOINT Right_collar
				{
					OFFSET -0.075339 0.110574 -0.037874
					CHANNELS 3 Zrotation Yrotation Xrotation
					JOINT Right_shoulder
					{
						OFFSET -0.086522 0.031207 -0.009986
						CHANNELS 3 Zrotation Yrotation Xrotation
						JOINT Right_elbow
						{
							OFFSET -0.237313 -0.011478 -0.019859
							CHANNELS 3 Zrotation Yrotation Xrotation
							JOINT Right_wrist
							{
								OFFSET -0.237599 0.007976 -0.003742
								CHANNELS 3 Zrotation Yrotation Xrotation
								JOINT Right_palm
								{
									OFFSET -0.076920 -0.006943 -0.009920
									CHANNELS 3 Zrotation Yrotation Xrotation
									End Site
									{
										OFFSET 0.000000 0.000000 0.000000
									}
								}
							}
						}
					}
				}
			}
		}
	}
}
MOTION
Frames: 5
Frame Time: 0.100000
0.000000 0.000000 0.000000 175.838143 30.857937 -24.391341 4.148853 4.941422 16.057737 1.325918 -8.972979 -1.401450 3.594259 6.755878 -4.477153 -7.924070 9.173755 -2.380236 -2.377058 -6.742669 20.820008 -0.966822 -0.839327 -3.539634 -7.104171 -9.662691 -8.273992 12.349988 -3.362628 9.861480 0.681572 1.108432 5.964125 -0.068216 -3.890413 6.653997 -0.079947 -2.848174 -1.239377 0.126400 -11.597959 7.639870 -1.218249 -12.084519 1.150826 -31.554503 0.473810 6.677297 -50.579994 -6.509157 6.470388 2.211086 -15.109920 12.882485 -13.224292 3.568838 -3.738387 -6.854035 -3.162671 -8.495596 32.031938 5.596555 4.773366 52.592381 3.625867 11.318362 -5.404502 12.674353 -0.591695 8.266737 -3.946689 -1.419543 10.042623 8.135735 -3.361480 
-0.000226 -0.000281 0.000613 175.812561 30.820715 -24.490254 4.193708 4.960519 16.102090 1.337765 -8.876327 -1.298850 3.583154 6.744993 -4.466330 -7.993996 9.080866 -2.461126 -2.362263 -6.799281 20.849087 -1.007962 -0.838701 -3.455677 -7.048262 -9.476313 -8.276638 12.354341 -3.479862 9.788242 0.679007 1.135929 5.922867 -0.096397 -3.842700 6.589913 -0.075224 -2.792788 -1.270462 0.031461 -11.573709 7.397904 -1.174155 -12.052337 1.015434 -31.466332 0.324339 6.586303 -50.899264 -6.734829 6.824551 2.231722 -16.282546 13.697460 -12.962772 3.405931 -3.353914 -6.865721 -3.132965 -8.380258 31.923202 5.702828 4.814727 52.654994 3.501158 11.348440 -5.268288 12.454883 -0.193965 8.306170 -3.966401 -1.106406 9.995251 8.118193 -3.422619 
-0.000369 -0.000367 0.000767 175.830347 30.728322 -24.532593 4.237279 5.046175 16.198039 1.328108 -8.822290 -1.287545 3.590507 6.737542 -4.450232 -8.043405 8.995063 -2.452102 -2.388316 -6.803052 20.906508 -1.020254 -0.772473 -3.430316 -7.002037 -9.389538 -8.238931 12.336832 -3.523114 9.716654 0.655116 1.131980 5.762708 -0.086004 -3.877045 6.539550 -0.069385 -2.801774 -1.284500 -0.026081 -11.438393 7.264201 -1.170788 -11.951195 0.828551 -31.276177 0.193269 6.607641 -50.754309 -6.661883 6.995805 1.974049 -16.509562 14.426203 -12.881006 3.369501 -2.918647 -6.989262 -3.149137 -8.521157 31.844589 5.715076 4.806005 52.692416 3.418248 11.370468 -5.156284 12.497371 0.166485 8.281823 -3.912691 -0.957629 10.078123 8.143512 -3.530793 
-0.000189 -0.000442 0.000284 175.829757 30.641426 -24.521908 4.258204 5.069548 16.065267 1.281937 -8.743863 -1.150849 3.475360 6.801152 -4.408115 -7.868443 8.781207 -2.534903 -2.354653 -6.739373 20.680360 -1.028922 -0.794023 -3.150288 -6.953074 -9.277339 -8.238925 12.239616 -3.773209 9.500726 0.664458 1.041532 5.781308 -0.055974 -3.926308 6.357286 -0.007235 -2.838736 -1.247702 -0.289366 -11.391217 7.106187 -1.143604 -11.820592 0.351981 -30.660825 0.443550 6.718748 -50.932815 -6.169631 7.127457 1.782973 -17.379031 15.181926 -12.782029 3.072574 -3.187855 -6.966249 -3.036251 -8.554338 31.342934 5.546183 4.740712 52.987095 3.222693 11.461356 -5.137911 13.402276 0.779129 8.187559 -3.727934 -1.270817 9.996514 8.071001 -3.543550 
-0.000032 0.000008 -0.000805 175.864102 30.484523 -24.738525 4.287082 5.159612 16.155808 1.248660 -8.790538 -0.867013 3.504687 6.877210 -4.552346 -7.873970 8.793542 -2.593563 -2.396833 -6.726560 20.707116 -1.045104 -0.672583 -2.844171 -6.941204 -9.277024 -8.374271 12.296153 -3.793579 9.368343 0.668529 1.071004 5.926223 -0.050665 -3.857366 6.437038 -0.024395 -2.805555 -1.162541 -0.265364 -11.349357 7.151347 -1.143093 -11.702277 0.195669 -30.589434 0.793062 6.733716 -50.576583 -5.751233 7.055919 1.388565 -18.088653 15.441893 -12.677205 2.920474 -3.398437 -7.098913 -3.050039 -8.605396 31.263578 5.219828 4.702629 52.877655 2.882391 11.488158 -5.121031 14.605829 0.869339 7.969344 -3.533612 -1.555929 10.121851 8.119187 -3.587865 
